<svg xmlns="http://www.w3.org/2000/svg" width="104" height="67" viewBox="0 0 104 67"><path fill="#fff" d="M69.26 30.74c-2.53.41-3.83 2.28-3.83 5.57s1.73 5.53 4.37 5.53c1.23 0 2.35-.41 4.7-1.56v2.68c-2.82 1.29-4.48 1.69-6.76 1.69-2.46 0-4.19-.65-5.61-2.09-1.45-1.45-2.17-3.36-2.17-5.5 0-4.74 3.51-7.95 8.64-7.95 3.41 0 5.75 1.56 5.75 3.84 0 1.47-1.09 2.48-2.71 2.48-.83 0-1.51-.22-2.39-.72v-3.98Zm-12.5 6.32c2.27-2.86 3.07-4.02 3.07-5.42s-1.11-2.53-2.6-2.53c-.91 0-1.74.43-2.14.88v5.83l-3.72 4.96V29.47h-3.54l-5.88 9.75v-9.75h-2.03l-5.34 1.3v1.36l2.91.3v11.96h3.76l5.64-9.27v9.27h4.12l5.74-7.34Zm-33.42-4.54c.87-.11 1.29-.15 1.7-.15 2.45 0 3.78 1.63 3.78 4.7 0 3.62-1.63 5.51-4.66 5.51-.25 0-.43 0-.83-.02V32.52Zm0 11.73c.98.11 1.93.15 2.5.15 5.04 0 8.24-3.23 8.24-8.03 0-4.15-2.4-7.15-5.65-7.15-1.41 0-2.35.29-5.09 1.92v-2h-1.52l-5.86 1.78v1.43h2.43v16.73l-2.18.54v1.39h9.58v-1.39l-2.44-.54v-4.84Z"/><path fill="#fd5108" d="M66.54 24.97H50.56l2.72-4.51h15.98zm21.42-9.03H71.98l-2.72 4.51h15.98z"/></svg>